<svg width="53" height="60" viewBox="0 0 53 60" fill="none" xmlns="http://www.w3.org/2000/svg">
<path d="M20.82 25.17C19.11 25.17 17.76 26.67 17.76 28.5C17.76 30.33 19.14 31.83 20.82 31.83C22.53 31.83 23.88 30.33 23.88 28.5C23.91 26.67 22.53 25.17 20.82 25.17ZM31.77 25.17C30.06 25.17 28.71 26.67 28.71 28.5C28.71 30.33 30.09 31.83 31.77 31.83C33.48 31.83 34.83 30.33 34.83 28.5C34.83 26.67 33.48 25.17 31.77 25.17Z" fill="#7289DA"/>
<path d="M46.35 0H6.15C2.76 0 0 2.76 0 6.18V46.74C0 50.16 2.76 52.92 6.15 52.92H40.17L38.58 47.37L42.42 50.94L46.05 54.3L52.5 60V6.18C52.5 2.76 49.74 0 46.35 0ZM34.77 39.18C34.77 39.18 33.69 37.89 32.79 36.75C36.72 35.64 38.22 33.18 38.22 33.18C36.99 33.99 35.82 34.56 34.77 34.95C33.27 35.58 31.83 36 30.42 36.24C27.54 36.78 24.9 36.63 22.65 36.21C20.94 35.88 19.47 35.4 18.24 34.92C17.55 34.65 16.8 34.32 16.05 33.9C15.96 33.84 15.87 33.81 15.78 33.75C15.72 33.72 15.69 33.69 15.66 33.66C15.12 33.36 14.82 33.15 14.82 33.15C14.82 33.15 16.26 35.55 20.07 36.69C19.17 37.83 18.06 39.18 18.06 39.18C11.43 38.97 8.91 34.62 8.91 34.62C8.91 24.96 13.23 17.13 13.23 17.13C17.55 13.89 21.66 13.98 21.66 13.98L21.96 14.34C16.56 15.9 14.07 18.27 14.07 18.27C14.07 18.27 14.73 17.91 15.84 17.4C19.05 15.99 21.6 15.6 22.65 15.51C22.83 15.48 22.98 15.45 23.16 15.45C24.99 15.21 27.06 15.15 29.22 15.39C32.07 15.72 35.13 16.56 38.25 18.27C38.25 18.27 35.88 16.02 30.78 14.46L31.2 13.98C31.2 13.98 35.31 13.89 39.63 17.13C39.63 17.13 43.95 24.96 43.95 34.62C43.95 34.62 41.4 38.97 34.77 39.18V39.18Z" fill="#7289DA"/>
</svg>
