<svg width="61" height="60" viewBox="0 0 61 60" fill="none" xmlns="http://www.w3.org/2000/svg">
<g clip-path="url(#clip0)">
<path d="M59.4804 30.6886C59.4804 28.6494 59.3148 26.599 58.9616 24.5928H30.6166V36.1452H46.8484C46.1748 39.8712 44.0106 43.167 40.8416 45.2616V52.7574H50.5254C56.212 47.5324 59.4804 39.816 59.4804 30.6886Z" fill="#4285F4"/>
<path d="M30.6168 59.9994C38.7216 59.9994 45.5566 57.3428 50.5364 52.757L40.8526 45.2612C38.1584 47.091 34.6802 48.1272 30.6278 48.1272C22.788 48.1272 16.1407 42.847 13.7556 35.748H3.76259V43.4754C8.86399 53.6058 19.2545 59.9994 30.6168 59.9994Z" fill="#34A853"/>
<path d="M13.7446 35.7484C12.4858 32.0224 12.4858 27.988 13.7446 24.262V16.5347H3.76259C-0.499618 25.0116 -0.499618 34.9988 3.76259 43.4756L13.7446 35.7484Z" fill="#FBBC04"/>
<path d="M30.6168 11.8717C34.901 11.8056 39.0418 13.415 42.1446 16.3692L50.7242 7.8041C45.2916 2.71132 38.0812 -0.0886064 30.6168 -0.000419741C19.2545 -0.000419741 8.86399 6.39312 3.76259 16.5346L13.7446 24.262C16.1186 17.1519 22.7768 11.8717 30.6168 11.8717Z" fill="#EA4335"/>
</g>
<defs>
<clipPath id="clip0">
<rect x="0.571426" width="60" height="60" fill="white"/>
</clipPath>
</defs>
</svg>
