<svg width="30" height="30" viewBox="0 0 30 30" fill="none" xmlns="http://www.w3.org/2000/svg">
<g clip-path="url(#clip0)">
<path d="M29.4545 15.3443C29.4545 14.3247 29.3717 13.2995 29.1951 12.2964H15.0226V18.0726H23.1385C22.8017 19.9356 21.7196 21.5835 20.1351 22.6308V26.3787H24.977C27.8203 23.7662 29.4545 19.908 29.4545 15.3443Z" fill="#4285F4"/>
<path d="M15.0227 29.9997C19.0751 29.9997 22.4926 28.6714 24.9825 26.3785L20.1406 22.6306C18.7935 23.5455 17.0544 24.0636 15.0282 24.0636C11.1083 24.0636 7.78462 21.4235 6.59209 17.874H1.59558V21.7377C4.14628 26.8029 9.34155 29.9997 15.0227 29.9997Z" fill="#34A853"/>
<path d="M6.58657 17.8742C5.95718 16.0112 5.95718 13.994 6.58657 12.131V8.26733H1.59558C-0.535523 12.5058 -0.535523 17.4994 1.59558 21.7378L6.58657 17.8742Z" fill="#FBBC04"/>
<path d="M15.0227 5.93585C17.1648 5.90278 19.2352 6.70749 20.7866 8.18461L25.0764 3.90205C22.3601 1.35566 18.7549 -0.0443032 15.0227 -0.000209871C9.34155 -0.000209871 4.14628 3.19656 1.59558 8.26729L6.58657 12.131C7.77358 8.57594 11.1027 5.93585 15.0227 5.93585Z" fill="#EA4335"/>
</g>
<defs>
<clipPath id="clip0">
<rect width="29.4545" height="30" fill="white"/>
</clipPath>
</defs>
</svg>
