<svg width="61" height="60" viewBox="0 0 61 60" fill="none" xmlns="http://www.w3.org/2000/svg">
<g clip-path="url(#clip0)">
<path fill-rule="evenodd" clip-rule="evenodd" d="M50.1854 13.9861C50.1854 15.9745 48.5732 17.5861 46.5854 17.5861C44.5974 17.5861 42.9854 15.9745 42.9854 13.9861C42.9854 11.9977 44.5974 10.3861 46.5854 10.3861C48.5738 10.3861 50.1854 11.9977 50.1854 13.9861ZM30.5714 39.9998C25.0486 39.9998 20.5716 35.5228 20.5716 30C20.5716 24.4772 25.0486 20.0002 30.5714 20.0002C36.0942 20.0002 40.5712 24.4772 40.5712 30C40.5712 35.5228 36.0942 39.9998 30.5714 39.9998ZM30.5714 14.5945C22.0632 14.5945 15.166 21.4918 15.166 30C15.166 38.5082 22.0632 45.4054 30.5714 45.4054C39.0796 45.4054 45.9768 38.5082 45.9768 30C45.9768 21.4918 39.0796 14.5945 30.5714 14.5945ZM30.5714 5.40562C38.5818 5.40562 39.5306 5.4361 42.6938 5.58046C45.6188 5.71406 47.2074 6.2025 48.2644 6.6136C49.6646 7.15782 50.6638 7.80796 51.7138 8.85796C52.7638 9.9075 53.414 10.9069 53.9582 12.3075C54.369 13.3645 54.8578 14.9531 54.9914 17.8781C55.1358 21.0418 55.1662 21.9904 55.1662 30.001C55.1662 38.0114 55.1358 38.9602 54.9914 42.1232C54.8578 45.0482 54.3694 46.6368 53.9582 47.694C53.414 49.094 52.7638 50.0934 51.7138 51.1434C50.6644 52.1934 49.665 52.8436 48.2644 53.3878C47.2074 53.7984 45.6188 54.2874 42.6938 54.421C39.5306 54.5654 38.5818 54.5958 30.5714 54.5958C22.5604 54.5958 21.6118 54.5654 18.4486 54.421C15.5236 54.2874 13.935 53.799 12.878 53.3878C11.4778 52.8436 10.4785 52.1934 9.42847 51.1434C8.37893 50.094 7.72831 49.0946 7.18409 47.694C6.77347 46.6368 6.28455 45.0482 6.15097 42.1232C6.00659 38.9596 5.97611 38.011 5.97611 30.001C5.97611 21.9904 6.00659 21.0418 6.15097 17.8781C6.28455 14.9531 6.77299 13.3645 7.18409 12.3075C7.72831 10.9073 8.37847 9.90796 9.42847 8.85796C10.478 7.80796 11.4774 7.15782 12.878 6.6136C13.935 6.20296 15.5236 5.71406 18.4486 5.58046C21.6122 5.4361 22.561 5.40562 30.5714 5.40562ZM30.5714 0C22.424 0 21.4022 0.0346876 18.2025 0.180469C15.0094 0.32625 12.8283 0.833438 10.9205 1.575C8.94753 2.3414 7.27455 3.3675 5.60675 5.03532C3.93893 6.70312 2.91283 8.3761 2.14643 10.3491C1.40486 12.2573 0.897676 14.438 0.751895 17.6311C0.606114 20.8308 0.571426 21.8526 0.571426 30C0.571426 38.1474 0.606114 39.1692 0.751895 42.369C0.897676 45.562 1.40486 47.7426 2.14643 49.651C2.91283 51.624 3.93893 53.2968 5.60675 54.9646C7.27455 56.6324 8.94753 57.6582 10.9205 58.425C12.8288 59.1666 15.0094 59.6738 18.2025 59.8196C21.4022 59.9654 22.424 60 30.5714 60C38.7188 60 39.7406 59.9654 42.9404 59.8196C46.1334 59.6738 48.314 59.1666 50.2224 58.425C52.1954 57.6582 53.8682 56.6324 55.536 54.9646C57.2038 53.2968 58.2296 51.624 58.9964 49.651C59.738 47.7426 60.2452 45.562 60.391 42.369C60.5368 39.1692 60.5714 38.1474 60.5714 30C60.5714 21.8526 60.5368 20.8308 60.391 17.6311C60.2452 14.438 59.738 12.2573 58.9964 10.3491C58.2296 8.3761 57.2038 6.70312 55.536 5.03532C53.8682 3.3675 52.1954 2.34188 50.2224 1.575C48.314 0.833438 46.1334 0.32625 42.9404 0.180469C39.7406 0.0346876 38.7188 0 30.5714 0Z" fill="url(#paint0_radial)"/>
</g>
<defs>
<radialGradient id="paint0_radial" cx="0" cy="0" r="1" gradientUnits="userSpaceOnUse" gradientTransform="translate(9.52975 60.2084) scale(76.665)">
<stop stop-color="#FFB140"/>
<stop offset="0.2559" stop-color="#FF5445"/>
<stop offset="0.599" stop-color="#FC2B82"/>
<stop offset="1" stop-color="#8E40B7"/>
</radialGradient>
<clipPath id="clip0">
<rect x="0.571426" width="60" height="60" fill="white"/>
</clipPath>
</defs>
</svg>
