<svg width="61" height="60" viewBox="0 0 61 60" fill="none" xmlns="http://www.w3.org/2000/svg">
<path d="M51.1245 51.124H42.2341V37.2013C42.2341 33.8812 42.1749 29.6074 37.6102 29.6074C32.9798 29.6074 32.2713 33.2246 32.2713 36.9596V51.1231H23.3809V22.4922H31.9157V26.4049H32.0352C32.8893 24.9445 34.1235 23.7432 35.6064 22.9287C37.0893 22.1143 38.7654 21.7173 40.4561 21.7801C49.4669 21.7801 51.1283 27.707 51.1283 35.4176L51.1245 51.124ZM13.3495 18.5786C12.3291 18.5788 11.3316 18.2764 10.483 17.7096C9.63449 17.1429 8.97312 16.3372 8.58246 15.3946C8.1918 14.4519 8.08942 13.4146 8.28831 12.4138C8.4872 11.4129 8.97842 10.4936 9.69983 9.77191C10.4212 9.05024 11.3404 8.55871 12.3412 8.35946C13.3419 8.16021 14.3793 8.26219 15.3221 8.65251C16.2649 9.04283 17.0707 9.70396 17.6378 10.5523C18.2049 11.4006 18.5076 12.398 18.5078 13.4184C18.5079 14.096 18.3746 14.7669 18.1154 15.3929C17.8563 16.0189 17.4764 16.5877 16.9974 17.0668C16.5184 17.546 15.9497 17.9261 15.3238 18.1855C14.6979 18.4449 14.027 18.5785 13.3495 18.5786V18.5786ZM17.7947 51.124H8.89504V22.4922H17.7947V51.124ZM55.5568 0.0040879H4.42762C3.26714 -0.00900821 2.14887 0.439159 1.31864 1.25011C0.488422 2.06105 0.0141631 3.16843 0 4.32891V55.6702C0.0136784 56.8313 0.487659 57.9394 1.31785 58.7512C2.14805 59.563 3.26656 60.012 4.42762 59.9997H55.5568C56.7202 60.0142 57.8418 59.5665 58.6753 58.7547C59.5088 57.9429 59.9859 56.8336 60.002 55.6702V4.32521C59.9854 3.16243 59.5079 2.05379 58.6744 1.24286C57.8409 0.431933 56.7196 -0.0149536 55.5568 0.000382054" fill="#0A66C2"/>
</svg>
