<svg width="60" height="60" viewBox="0 0 60 60" fill="none" xmlns="http://www.w3.org/2000/svg">
<path d="M50.2078 11.6799C50.1889 11.5504 50.1267 11.431 50.0315 11.3412C49.9362 11.2514 49.8134 11.1964 49.6829 11.1852L44.869 10.8324L41.2983 7.3134C40.9456 6.96064 40.2616 7.06819 40.0077 7.14562L38.2009 7.69198C37.1254 4.61174 35.2454 1.78103 31.9243 1.78103H31.6447C30.6982 0.542052 29.5281 0 28.5214 0C20.7778 0 17.0824 9.6709 15.9251 14.5881L10.5089 16.2659C8.83115 16.7907 8.78813 16.8466 8.55582 18.4169C8.39234 19.6257 4 53.5814 4 53.5814L38.2181 59.9914L56.7554 55.9819C56.7554 55.9819 50.2465 11.9811 50.2078 11.6799ZM36.3123 8.27275L33.4171 9.16756V8.54377C33.4487 6.9587 33.2146 5.37953 32.7245 3.8718C34.4367 4.0869 35.5767 6.0228 36.3123 8.27705V8.27275ZM30.6036 4.25038C31.0811 5.44203 31.3865 7.15423 31.3865 9.4644V9.79996L25.4068 11.6498C26.5597 7.20585 28.715 5.05915 30.6036 4.25038V4.25038ZM28.302 2.07356C28.6598 2.08096 29.0067 2.1981 29.2958 2.40912C26.8006 3.57926 24.1592 6.51753 23.0364 12.3855L18.3042 13.8481C19.6249 9.37406 22.7481 2.07356 28.302 2.07356V2.07356Z" fill="#95BF46"/>
<path d="M49.6829 11.1852L44.869 10.8324L41.2983 7.3134C41.1625 7.18582 40.9889 7.10581 40.8036 7.0854L38.2224 60L56.7597 55.9905C56.7597 55.9905 50.2508 11.9897 50.2121 11.6799C50.193 11.5497 50.1302 11.4298 50.0341 11.34C49.938 11.2501 49.8141 11.1955 49.6829 11.1852V11.1852Z" fill="#5F8E3E"/>
<path d="M31.9243 21.4369L29.6356 28.2383C28.2469 27.5578 26.7251 27.1921 25.1788 27.1671C21.578 27.1671 21.3973 29.4257 21.3973 29.9935C21.3973 33.0996 29.4937 34.2955 29.4937 41.5616C29.4937 47.2833 25.8628 50.9701 20.9671 50.9701C15.0949 50.9701 12.0878 47.3134 12.0878 47.3134L13.6623 42.1166C13.6623 42.1166 16.7511 44.7666 19.3538 44.7666C19.6656 44.7801 19.9768 44.7299 20.2685 44.6191C20.5601 44.5084 20.8262 44.3393 21.0504 44.1224C21.2747 43.9054 21.4523 43.645 21.5726 43.3571C21.6929 43.0692 21.7533 42.7598 21.7501 42.4478C21.7501 38.3954 15.1078 38.2147 15.1078 31.5595C15.1078 25.9669 19.1301 20.5334 27.248 20.5334C30.3756 20.5421 31.9243 21.4369 31.9243 21.4369V21.4369Z" fill="white"/>
</svg>
