<svg width="60" height="60" viewBox="0 0 60 60" fill="none" xmlns="http://www.w3.org/2000/svg">
<path d="M29.9986 0.0989304C13.4811 0.0989304 0.0903625 13.4893 0.0903625 30.0068C0.0903625 46.525 13.4811 59.9143 29.9986 59.9143C46.5179 59.9143 59.9071 46.525 59.9071 30.0068C59.9071 13.4904 46.5179 0.100359 29.9982 0.100359L29.9986 0.0989304V0.0989304ZM43.7143 43.2346C43.1786 44.1132 42.0286 44.3918 41.15 43.8525C34.1279 39.5632 25.2879 38.5918 14.8771 40.9704C13.8739 41.1989 12.8739 40.5704 12.6454 39.5668C12.4157 38.5632 13.0418 37.5632 14.0475 37.3346C25.4404 34.7307 35.2129 35.8525 43.0964 40.6704C43.975 41.2096 44.2536 42.3561 43.7143 43.2346V43.2346ZM47.375 35.09C46.7 36.1882 45.2643 36.5346 44.1679 35.8596C36.1286 30.9171 23.8739 29.4861 14.365 32.3725C13.1318 32.745 11.8293 32.05 11.455 30.8189C11.0836 29.5857 11.7789 28.2857 13.01 27.9107C23.8718 24.615 37.375 26.2114 46.6071 31.8846C47.7036 32.5596 48.05 33.9954 47.375 35.0904V35.09ZM47.6893 26.61C38.05 20.8846 22.1464 20.3582 12.9432 23.1514C11.4654 23.5996 9.9025 22.7654 9.45465 21.2875C9.00679 19.8089 9.84036 18.2471 11.3193 17.7979C21.8839 14.5907 39.4464 15.2104 50.5443 21.7986C51.8764 22.5875 52.3121 24.3043 51.5229 25.6318C50.7371 26.9611 49.0157 27.3993 47.6907 26.61H47.6893Z" fill="#1ED760"/>
</svg>
