<svg width="60" height="60" viewBox="0 0 60 60" fill="none" xmlns="http://www.w3.org/2000/svg">
<path d="M27.3163 49.2924C34.9024 47.9523 41.168 46.8433 41.24 46.8281L41.3709 46.8003L34.2088 38.2813C30.2697 33.5959 27.0468 29.7442 27.0468 29.722C27.0468 29.6799 34.4422 9.31466 34.4838 9.24221C34.4977 9.21798 39.5305 17.9069 46.6836 30.3048C53.3805 41.9119 58.9017 51.482 58.953 51.5717L59.0463 51.7348L36.2849 51.7318L13.5234 51.7289L27.3163 49.2924ZM0 46.6945C0 46.6825 3.37471 40.8243 7.49934 33.6762L14.9987 20.6797L23.7383 13.3454C28.5451 9.31156 32.4909 6.00619 32.5067 6.00017C32.5225 5.99414 32.4593 6.15329 32.3662 6.35383C32.2731 6.55437 28.0026 15.7141 22.8762 26.7089L13.5555 46.6993L6.77773 46.7078C3.04998 46.7124 0 46.7065 0 46.6945Z" fill="#0089D6"/>
</svg>
