<svg width="67" height="60" viewBox="0 0 67 60" fill="none" xmlns="http://www.w3.org/2000/svg">
<path d="M2.16545 0.000177814C1.85345 -0.00384622 1.54435 0.0604737 1.25986 0.188622C0.97536 0.316771 0.722363 0.505642 0.518629 0.741974C0.314895 0.978305 0.165362 1.25637 0.0805293 1.55664C-0.00430318 1.85691 -0.0223789 2.17212 0.0275712 2.48012L9.10288 57.5733C9.21595 58.2475 9.56296 58.8603 10.083 59.3041C10.603 59.7478 11.2627 59.9942 11.9463 59.9998H55.4842C55.9966 60.0064 56.4944 59.8287 56.8868 59.4991C57.2792 59.1695 57.5401 58.7099 57.6221 58.204L66.6974 2.49081C66.7474 2.18281 66.7293 1.8676 66.6444 1.56733C66.5596 1.26706 66.4101 0.988995 66.2063 0.752663C66.0026 0.516331 65.7496 0.327461 65.4651 0.199312C65.1806 0.0711633 64.8715 0.00684292 64.5595 0.010867L2.16545 0.000177814ZM40.3801 39.8182H26.4839L22.7212 20.1604H43.7472L40.3801 39.8182Z" fill="#2684FF"/>
<path d="M63.8112 20.1604H43.7472L40.3801 39.8182H26.4838L10.0756 59.2943C10.5957 59.744 11.2587 59.9941 11.9462 59.9998H55.4949C56.0073 60.0064 56.5051 59.8287 56.8975 59.4991C57.2899 59.1695 57.5508 58.7099 57.6328 58.204L63.8112 20.1604Z" fill="url(#paint0_linear)"/>
<defs>
<linearGradient id="paint0_linear" x1="68.4504" y1="25.6654" x2="35.2919" y2="51.5445" gradientUnits="userSpaceOnUse">
<stop offset="0.18" stop-color="#0052CC"/>
<stop offset="1" stop-color="#2684FF"/>
</linearGradient>
</defs>
</svg>
