<svg width="60" height="60" viewBox="0 0 60 60" fill="none" xmlns="http://www.w3.org/2000/svg">
<path fill-rule="evenodd" clip-rule="evenodd" d="M30.0026 60V48.3722C42.3168 48.3722 51.8757 36.1668 47.1469 23.2127C46.2784 20.8329 44.8998 18.6717 43.1078 16.8804C41.3158 15.0891 39.1536 13.711 36.7726 12.8427C23.8118 8.15112 11.6 17.6703 11.6 29.978H0C0 10.3622 18.9818 -4.93771 39.5615 1.48697C48.5425 4.3106 55.7196 11.449 58.5096 20.4264C64.9389 41.028 49.6648 60 30.0026 60Z" fill="#0080FF"/>
<path fill-rule="evenodd" clip-rule="evenodd" d="M18.4713 48.4059H30.0364V36.8467H18.4725L18.4713 48.4059ZM9.55893 57.3136H18.47V48.4071H9.55893V57.3136ZM2.10858 48.4071H9.55893V40.9594H2.10858V48.4071Z" fill="#0080FF"/>
</svg>
