<svg width="62" height="60" viewBox="0 0 62 60" fill="none" xmlns="http://www.w3.org/2000/svg">
<path fill-rule="evenodd" clip-rule="evenodd" d="M30.7588 0C13.7646 0 0 13.7646 0 30.7588C0 44.3696 8.80471 55.8657 21.0313 59.9412C22.5693 60.2104 23.146 59.2876 23.146 58.4802C23.146 57.7497 23.1076 55.3274 23.1076 52.7514C15.3794 54.174 13.3801 50.8674 12.7649 49.1372C12.4189 48.2529 10.9194 45.523 9.61213 44.7925C8.53557 44.2158 6.99763 42.7932 9.57368 42.7548C11.9959 42.7163 13.7261 44.9848 14.3028 45.9075C17.0711 50.5598 21.4927 49.2526 23.2614 48.4451C23.5305 46.4458 24.3379 45.1001 25.2222 44.3311C18.3784 43.5622 11.227 40.9092 11.227 29.144C11.227 25.799 12.4189 23.0307 14.3797 20.8775C14.0722 20.1086 12.9956 16.9558 14.6873 12.7265C14.6873 12.7265 17.2634 11.919 23.146 15.8792C25.6067 15.1872 28.2212 14.8411 30.8357 14.8411C33.4502 14.8411 36.0647 15.1872 38.5254 15.8792C44.408 11.8806 46.9841 12.7265 46.9841 12.7265C48.6758 16.9558 47.5993 20.1086 47.2917 20.8775C49.2526 23.0307 50.4445 25.7605 50.4445 29.144C50.4445 40.9477 43.2546 43.5622 36.4107 44.3311C37.5258 45.2924 38.487 47.1379 38.487 50.0215C38.487 54.1355 38.4485 57.4421 38.4485 58.4802C38.4485 59.2876 39.0252 60.2488 40.5632 59.9412C52.7129 55.8657 61.5176 44.3311 61.5176 30.7588C61.5176 13.7646 47.7531 0 30.7588 0Z" fill="#1B1F23"/>
</svg>
