<svg width="60" height="60" viewBox="0 0 60 60" fill="none" xmlns="http://www.w3.org/2000/svg">
<path fill-rule="evenodd" clip-rule="evenodd" d="M30.0175 57.6513L41.0575 23.6301H18.9775L30.0175 57.6513Z" fill="#E24329"/>
<path fill-rule="evenodd" clip-rule="evenodd" d="M30.0175 57.6512L18.9775 23.63H3.50525L30.0175 57.6512Z" fill="#FC6D26"/>
<path fill-rule="evenodd" clip-rule="evenodd" d="M3.50529 23.6301L0.15043 33.9689C-0.15557 34.9118 0.179573 35.9448 0.980715 36.5275L30.0176 57.6513L3.50529 23.6301Z" fill="#FCA326"/>
<path fill-rule="evenodd" clip-rule="evenodd" d="M3.50528 23.6301H18.9775L12.3281 3.13946C11.9861 2.08496 10.4964 2.08525 10.1544 3.13946L3.50528 23.6301Z" fill="#E24329"/>
<path fill-rule="evenodd" clip-rule="evenodd" d="M30.0175 57.6512L41.0575 23.63H56.5298L30.0175 57.6512Z" fill="#FC6D26"/>
<path fill-rule="evenodd" clip-rule="evenodd" d="M56.5298 23.6301L59.8847 33.9689C60.1907 34.9118 59.8556 35.9448 59.0544 36.5275L30.0175 57.6513L56.5298 23.6301Z" fill="#FCA326"/>
<path fill-rule="evenodd" clip-rule="evenodd" d="M56.5298 23.6301H41.0576L47.707 3.13946C48.049 2.08496 49.5387 2.08525 49.8807 3.13946L56.5298 23.6301Z" fill="#E24329"/>
</svg>
