<svg width="60" height="60" viewBox="0 0 60 60" fill="none" xmlns="http://www.w3.org/2000/svg">
<path d="M29.9916 60C46.5554 60 59.9831 46.5685 59.9831 30C59.9831 13.4315 46.5554 0 29.9916 0C13.4277 0 0 13.4315 0 30C0 46.5685 13.4277 60 29.9916 60Z" fill="#FF4500"/>
<path d="M49.9934 30C49.9039 27.5839 47.8762 25.6972 45.4533 25.7793C44.3798 25.8166 43.3584 26.2565 42.5831 26.9948C39.1687 24.6682 35.1579 23.393 31.0353 23.3035L32.981 13.9448L39.3998 15.2946C39.5787 16.9426 41.0548 18.1357 42.7024 17.9567C44.3499 17.7778 45.5427 16.3013 45.3638 14.6532C45.1849 13.0052 43.7088 11.8121 42.0612 11.9911C41.1145 12.088 40.2646 12.6398 39.7949 13.4601L32.4443 11.9911C31.9448 11.8792 31.4453 12.1924 31.3335 12.6995C31.3335 12.7069 31.3335 12.7069 31.3335 12.7144L29.1193 23.1245C24.9445 23.1916 20.8815 24.4743 17.4224 26.8158C15.663 25.1603 12.8897 25.2424 11.2347 27.0097C9.57971 28.7696 9.66171 31.5436 11.4286 33.1991C11.7715 33.5198 12.1666 33.7957 12.6064 33.9896C12.5766 34.4295 12.5766 34.8695 12.6064 35.3095C12.6064 42.0283 20.4342 47.4944 30.0885 47.4944C39.7427 47.4944 47.5705 42.0358 47.5705 35.3095C47.6003 34.8695 47.6003 34.4295 47.5705 33.9896C49.0764 33.2364 50.0232 31.6853 49.9934 30ZM20.0018 33.0052C20.0018 31.3497 21.3512 30 23.0062 30C24.6612 30 26.0106 31.3497 26.0106 33.0052C26.0106 34.6607 24.6612 36.0104 23.0062 36.0104C21.3437 35.9955 20.0018 34.6607 20.0018 33.0052ZM37.4242 41.2528C35.2921 42.8561 32.6828 43.6764 30.0139 43.5645C27.345 43.6764 24.7358 42.8561 22.6036 41.2528C22.3203 40.9098 22.3725 40.3952 22.7155 40.1119C23.0137 39.8658 23.4386 39.8658 23.7442 40.1119C25.5484 41.4318 27.7476 42.1029 29.9841 41.9985C32.2206 42.1178 34.4273 41.4765 36.2538 40.1715C36.5818 39.8509 37.1186 39.8583 37.4391 40.1864C37.7597 40.5145 37.7522 41.0515 37.4242 41.3721V41.2528ZM36.8875 36.1148C35.2324 36.1148 33.8831 34.7651 33.8831 33.1096C33.8831 31.4541 35.2324 30.1044 36.8875 30.1044C38.5425 30.1044 39.8918 31.4541 39.8918 33.1096C39.9589 34.7651 38.6692 36.1596 37.0142 36.2267C36.962 36.2267 36.9173 36.2267 36.8651 36.2267L36.8875 36.1148Z" fill="white"/>
</svg>
